<!DOCTYPE svg PUBLIC "-//W3C//DTD SVG 1.1//EN" "http://www.w3.org/Graphics/SVG/1.1/DTD/svg11.dtd">

<!-- Uploaded to: SVG Repo, www.svgrepo.com, Transformed by: SVG Repo Mixer Tools -->
<svg fill="#fff" version="1.1" id="Layer_1" xmlns="http://www.w3.org/2000/svg" xmlns:xlink="http://www.w3.org/1999/xlink" width="800px" height="800px" viewBox="-25.6 -25.6 307.20 307.20" xml:space="preserve" stroke="#fff">

<g id="SVGRepo_bgCarrier" stroke-width="0" transform="translate(0,0), scale(1)">

<path transform="translate(-25.6, -25.6), scale(9.6)" d="M16,28.05492775142193C19.58130995460465,28.030121586311026,23.579611153206884,28.64354077565311,26.160077130569015,26.160077130569018C28.76466191493454,23.65340132888949,28.33712119529275,19.609943428456035,28.525784697383642,16C28.731037250410782,12.072636748695722,29.986679687669948,7.573071180859952,27.280614341333447,4.719385658666557C24.551864083217414,1.841777726615197,19.964887252015682,2.7110735726636572,16,2.7909137917061653C12.157068642337528,2.8682982069137126,7.864417515944119,2.4287115171499054,5.164729245541393,5.164729245541389C2.4738533917427645,7.891815969445015,2.869645875809895,12.170055942151599,2.9663070055345706,15.999999999999998C3.0594870510271774,19.69201521398471,2.9868946042896134,23.794114807545075,5.698192357806086,26.301807642193907C8.356584103143268,28.760567445622172,12.378961838261766,28.08000909641902,16,28.05492775142193" fill="#0000" strokewidth="0"/>

</g>

<g id="SVGRepo_iconCarrier"> <path d="M84.2,2.4c18.7,0,33.8,15.1,33.8,33.8S102.9,70,84.2,70S50.4,54.9,50.4,36.2S65.5,2.4,84.2,2.4z M156.3,122.2l-21.8,63H88.6 v-3.9c0-6.5-5.3-11.8-11.8-11.8H33.5v-43.3c0-2.2,1.8-3.9,3.9-3.9s3.9,1.8,3.9,3.9v35.4h35.4c9.5,0,17.5,6.8,19.3,15.8h32.8 l17.7-51.4c-4.4-9.1-8.9-18.3-12.3-24.4c-6.7-14.4-21.4-24.4-38.3-24.4H44.2C20.9,77.1,2,96.1,2,119.3v63.6 c0,9.8,7.9,17.7,17.7,17.7H227l3.6-10.3l23.4-68.1H156.3z M197.6,168.1c-4.3,0-7.8-2.2-7.8-5c0-2.8,3.5-5,7.8-5c4.3,0,7.8,2.2,7.8,5 C205.4,165.8,201.9,168.1,197.6,168.1z"/> </g>

</svg>